{
  "accessors": [
    {
      "bufferView": 2,
      "componentType": 5126,
      "count": 65532,
      "max": [
        0.2027139961719513,
        0.4908260107040405,
        1.1494569778442383
      ],
      "min": [
        -0.49117499589920044,
        -0.5353900194168091,
        0.06102199852466583
      ],
      "type": "VEC3"
    },
    {
      "bufferView": 2,
      "byteOffset": 786384,
      "componentType": 5126,
      "count": 65532,
      "max": [
        0.9915543794631958,
        0.9995974898338318,
        0.9988948702812195
      ],
      "min": [
        -0.9999885559082031,
        -0.9999933242797852,
        -0.9981992840766907
      ],
      "type": "VEC3"
    },
    {
      "bufferView": 1,
      "componentType": 5126,
      "count": 65532,
      "max": [
        0.9999759793281555,
        0.9797710180282593
      ],
      "min": [
        0.01179100014269352,
        0.0024739999789744616
      ],
      "type": "VEC2"
    },
    {
      "bufferView": 0,
      "componentType": 5125,
      "count": 363882,
      "type": "SCALAR"
    },
    {
      "bufferView": 2,
      "byteOffset": 1572768,
      "componentType": 5126,
      "count": 65532,
      "max": [
        0.5448369979858398,
        0.3310750126838684,
        1.4409149885177612
      ],
      "min": [
        -0.4750100076198578,
        -0.5143740177154541,
        0.11988300085067749
      ],
      "type": "VEC3"
    },
    {
      "bufferView": 2,
      "byteOffset": 2359152,
      "componentType": 5126,
      "count": 65532,
      "max": [
        0.9998026490211487,
        0.9999387264251709,
        0.9999867677688599
      ],
      "min": [
        -0.9995953440666199,
        -0.9999885559082031,
        -0.9994905591011047
      ],
      "type": "VEC3"
    },
    {
      "bufferView": 1,
      "byteOffset": 524256,
      "componentType": 5126,
      "count": 65532,
      "max": [
        0.9866690039634705,
        0.9920499920845032
      ],
      "min": [
        0.011621999554336071,
        4.8000001697801054e-05
      ],
      "type": "VEC2"
    },
    {
      "bufferView": 0,
      "byteOffset": 1455528,
      "componentType": 5125,
      "count": 353442,
      "type": "SCALAR"
    },
    {
      "bufferView": 2,
      "byteOffset": 3145536,
      "componentType": 5126,
      "count": 65532,
      "max": [
        0.546114981174469,
        0.5071750283241272,
        1.1205960512161255
      ],
      "min": [
        -0.4890410006046295,
        -0.5374990105628967,
        0.17148099839687347
      ],
      "type": "VEC3"
    },
    {
      "bufferView": 2,
      "byteOffset": 3931920,
      "componentType": 5126,
      "count": 65532,
      "max": [
        0.999980092048645,
        0.9999833106994629,
        0.771622359752655
      ],
      "min": [
        -0.9990501403808594,
        -0.9999933242797852,
        -0.9097744822502136
      ],
      "type": "VEC3"
    },
    {
      "bufferView": 1,
      "byteOffset": 1048512,
      "componentType": 5126,
      "count": 65532,
      "max": [
        0.9834809899330139,
        0.925046980381012
      ],
      "min": [
        0.06733699887990952,
        3.9999998989515007e-05
      ],
      "type": "VEC2"
    },
    {
      "bufferView": 0,
      "byteOffset": 2869296,
      "componentType": 5125,
      "count": 336423,
      "type": "SCALAR"
    },
    {
      "bufferView": 2,
      "byteOffset": 4718304,
      "componentType": 5126,
      "count": 65532,
      "max": [
        0.5421670079231262,
        0.5071750283241272,
        1.3994359970092773
      ],
      "min": [
        -0.48595699667930603,
        -0.4368250072002411,
        0.0007910000276751816
      ],
      "type": "VEC3"
    },
    {
      "bufferView": 2,
      "byteOffset": 5504688,
      "componentType": 5126,
      "count": 65532,
      "max": [
        0.9998146891593933,
        0.9999598264694214,
        0.9995567202568054
      ],
      "min": [
        -0.9998503923416138,
        -0.9997957348823547,
        -0.9999333620071411
      ],
      "type": "VEC3"
    },
    {
      "bufferView": 1,
      "byteOffset": 1572768,
      "componentType": 5126,
      "count": 65532,
      "max": [
        0.99931800365448,
        0.9956730008125305
      ],
      "min": [
        7.000000096013537e-06,
        0.0005119999987073243
      ],
      "type": "VEC2"
    },
    {
      "bufferView": 0,
      "byteOffset": 4214988,
      "componentType": 5125,
      "count": 310134,
      "type": "SCALAR"
    },
    {
      "bufferView": 2,
      "byteOffset": 6291072,
      "componentType": 5126,
      "count": 58813,
      "max": [
        0.544842004776001,
        0.43658900260925293,
        1.441627025604248
      ],
      "min": [
        -0.49117499589920044,
        -0.4377569854259491,
        0.0029249999206513166
      ],
      "type": "VEC3"
    },
    {
      "bufferView": 2,
      "byteOffset": 6996828,
      "componentType": 5126,
      "count": 58813,
      "max": [
        0.9997275471687317,
        0.9999891519546509,
        0.9999876022338867
      ],
      "min": [
        -0.9998287558555603,
        -0.9998514652252197,
        -0.9999814033508301
      ],
      "type": "VEC3"
    },
    {
      "bufferView": 1,
      "byteOffset": 2097024,
      "componentType": 5126,
      "count": 58813,
      "max": [
        0.9997029900550842,
        0.9955739974975586
      ],
      "min": [
        1.9999999494757503e-05,
        0.0003929999948013574
      ],
      "type": "VEC2"
    },
    {
      "bufferView": 0,
      "byteOffset": 5455524,
      "componentType": 5125,
      "count": 280065,
      "type": "SCALAR"
    }
  ],
  "asset": {
    "extras": {
      "author": "Lassi Kaukonen (https://sketchfab.com/thesidekick)",
      "license": "CC-BY-4.0 (http://creativecommons.org/licenses/by/4.0/)",
      "source": "https://sketchfab.com/3d-models/red-onion-2e546b2c6a4c4e698fa203c7302ea3a6",
      "title": "Red onion"
    },
    "generator": "Sketchfab-12.34.0",
    "version": "2.0"
  },
  "bufferViews": [
    {
      "buffer": 0,
      "byteLength": 6575784,
      "name": "floatBufferViews",
      "target": 34963
    },
    {
      "buffer": 0,
      "byteLength": 2567528,
      "byteOffset": 6575784,
      "byteStride": 8,
      "name": "floatBufferViews",
      "target": 34962
    },
    {
      "buffer": 0,
      "byteLength": 7702584,
      "byteOffset": 9143312,
      "byteStride": 12,
      "name": "floatBufferViews",
      "target": 34962
    }
  ],
  "buffers": [
    {
      "byteLength": 16845896,
      "uri": "scene.bin"
    }
  ],
  "extensionsRequired": [
    "KHR_materials_pbrSpecularGlossiness"
  ],
  "extensionsUsed": [
    "KHR_materials_pbrSpecularGlossiness"
  ],
  "images": [
    {
      "uri": "textures/Red_onion_diffuse.jpeg"
    },
    {
      "uri": "textures/Red_onion_specularGlossiness.png"
    }
  ],
  "materials": [
    {
      "doubleSided": true,
      "extensions": {
        "KHR_materials_pbrSpecularGlossiness": {
          "diffuseFactor": [
            1.0,
            1.0,
            1.0,
            1.0
          ],
          "diffuseTexture": {
            "index": 0
          },
          "glossinessFactor": 1.0,
          "specularFactor": [
            0.2631702956932038,
            0.2631702956932038,
            0.2631702956932038
          ],
          "specularGlossinessTexture": {
            "index": 1
          }
        }
      },
      "name": "Red_onion"
    }
  ],
  "meshes": [
    {
      "name": "Object_0",
      "primitives": [
        {
          "attributes": {
            "NORMAL": 1,
            "POSITION": 0,
            "TEXCOORD_0": 2
          },
          "indices": 3,
          "material": 0,
          "mode": 4
        }
      ]
    },
    {
      "name": "Object_1",
      "primitives": [
        {
          "attributes": {
            "NORMAL": 5,
            "POSITION": 4,
            "TEXCOORD_0": 6
          },
          "indices": 7,
          "material": 0,
          "mode": 4
        }
      ]
    },
    {
      "name": "Object_2",
      "primitives": [
        {
          "attributes": {
            "NORMAL": 9,
            "POSITION": 8,
            "TEXCOORD_0": 10
          },
          "indices": 11,
          "material": 0,
          "mode": 4
        }
      ]
    },
    {
      "name": "Object_3",
      "primitives": [
        {
          "attributes": {
            "NORMAL": 13,
            "POSITION": 12,
            "TEXCOORD_0": 14
          },
          "indices": 15,
          "material": 0,
          "mode": 4
        }
      ]
    },
    {
      "name": "Object_4",
      "primitives": [
        {
          "attributes": {
            "NORMAL": 17,
            "POSITION": 16,
            "TEXCOORD_0": 18
          },
          "indices": 19,
          "material": 0,
          "mode": 4
        }
      ]
    }
  ],
  "nodes": [
    {
      "children": [
        1
      ],
      "matrix": [
        1.0,
        0.0,
        0.0,
        0.0,
        0.0,
        2.220446049250313e-16,
        -1.0,
        0.0,
        0.0,
        1.0,
        2.220446049250313e-16,
        0.0,
        0.0,
        0.0,
        0.0,
        1.0
      ],
      "name": "Sketchfab_model"
    },
    {
      "children": [
        2,
        3,
        4,
        5,
        6
      ],
      "name": "Red_onion_SF.obj.cleaner.materialmerger.gles"
    },
    {
      "mesh": 0,
      "name": "Object_2"
    },
    {
      "mesh": 1,
      "name": "Object_3"
    },
    {
      "mesh": 2,
      "name": "Object_4"
    },
    {
      "mesh": 3,
      "name": "Object_5"
    },
    {
      "mesh": 4,
      "name": "Object_6"
    }
  ],
  "samplers": [
    {
      "magFilter": 9729,
      "minFilter": 9987,
      "wrapS": 10497,
      "wrapT": 10497
    }
  ],
  "scene": 0,
  "scenes": [
    {
      "name": "Sketchfab_Scene",
      "nodes": [
        0
      ]
    }
  ],
  "textures": [
    {
      "sampler": 0,
      "source": 0
    },
    {
      "sampler": 0,
      "source": 1
    }
  ]
}
